<svg width="431" height="263" fill="none" xmlns="http://www.w3.org/2000/svg"><g clip-path="url(#a)" fill="#284380"><path d="M229.74 38.768c-.651 3.155 1.935 3.724 4.329 4.549 9.822 3.381 19.855.868 29.639 4.822 6.474 2.616 10.524 4.544 11.989 11.97 1.344 6.796-.373 13.414 1.627 20.39 3.126 10.888 13.043 17.322 1.439 27.637-5.627 5.001-13.223 5.916-20.138 8.323-1.113.534-1.738 1.907-1.494 3.095-1.983.372-3.897.782-5.451 2.15-.236.205-.377.663-.527.753-.458.269-3.143-.954-2.205 1.932-.026.179-.171.205-.308.265-1.405.628-5.807 1.312-7.485 1.509-8.962 1.047-14.284-2.133-22.51-4.185-2.881-.718-8.773-1.274-10.833-3.292-.458-.449-.488-1.312-.801-1.979-1.147-2.471-3.682-2.8-5.973-3.655-4.74-6.797-11.021-12.252-16.374-18.493-2.012-2.347-6.003-7.02-6.474-9.994-.471-2.976.642-2.92 2.8-3.942 1.568-.744 3.383-1.42 5.015-2.047 1.631-.629 6.118-2.523 7.685-2.608 1.062-.06 2.308.73 3.186 1.265 3.978 2.428 7.451 6.656 11.523 8.802 3.361 1.774 14.652 1.714 18.138.081 1.678-.786 2.136-2.111.488-3.287-1.182-.846-6.102-2.86-7.613-3.3-4.137-1.214-8.406.124-12.482-1.646-9.904-4.296-17.025-24.93-23.567-33.754-.377-.509-2.03-2.142-2.133-2.377-.201-.466.334-1.282-.205-1.92l-2.034-.209c-.184-4.33.938-8.336 2.963-12.114.364-.684 2.792-4.763 3.126-5.002.612-.44 1.087.098 1.691-.218.831-.432 1.357-1.808 1.46-1.872.287-.18 1.156.123 1.683-.137.381-.188.98-2.189 1.636-2.856 2.26-2.304 7.03-3.813 9.565-5.84.634-.508 1.717-2.047 2.073-2.205 1.126-.492 2.487.303 3.108-1.813.223-.76.81-2.24.908-2.727.137-.68-.163-2.27.407-2.637.526-.342 2.359.12 3.34-.035.886-.14 1.832-.825 2.672-.966.886-.15 1.789.034 2.68-.102.891-.137 1.871-.885 2.633-1.005 1.987-.316 4.698.26 6.847.21.951-.022 1.888-.38 2.878-.223-.112.496-.309.86-.013 1.343.633 1.03 5.112 1.83 6.333 1.863.856.022 1.896-.337 2.556-.213.334.06 1.653.949 2.261 1.17 5.772 2.134 14.177.381 20.334.971-.985 2.89 1.118 1.702 2.437 2.377.368.188 4.243 3.112 4.633 3.497 1.991 1.924 3.785 6.92 4.037 9.648.236 2.552-.179 5.348.022 7.887.278 3.514 3.661 5.844 3.198 9.38-.201 1.534-1.511 2.256-2.697 3.077-2.038 1.41-6.089 3.869-8.534 3.68-2.723-.209-2.706-2.308-4.582-3.33-.59-.32-7.206-2.658-7.613-2.658h-21.302l.009-.005Zm-7.237-32.531c-.18-.107-.111-.62-.933-.88-2.158-.685-2.514.341-3.987.863-2.599.923-6.765 1.684-8.358 4.266-1.177 1.907-.261 2.065-2.505 3.912-6.358 5.25-21.268 10.507-22.343 19.587-.967 8.182 8.384 15.936 12.08 22.738 1.13 2.081 1.742 4.66 3.639 6.198 1.897 1.54 8.791 3.813 11.133 4.061.677.073 1.777-.145 2.308 0 .21.06.253.47.488.62 1.002.633 4.205-.038 5.665.338 2.68.688 4.282 2.71 6.2 4.283 2.09 1.714 3.952 2.608 5.447 5.036 2.689 4.373 2.779 9.956 2.457 14.923a21.81 21.81 0 0 1-4.153.872c-6.26.693-13.856 0-20.056-1.133-1.43-.26-2.788-.842-4.244-.79.883-3.095-1.036-1.65-1.914-2.027-1.087-.461-3.155-2.885-4.196-3.74-2.085-1.714-4.68-2.745-7.437-2.308-1.011.158-2.445.966-3.499 1-1.344.043-2.252-.748-4.115-.265-1.237.32-2.406 1.872-2.38 3.155.025 1.282 1.837.906 2.672 1.393 5.793 5.455 11.282 12.017 17.675 16.766 3.233 2.403 5.357 2.723 9.181 3.659 6.726 1.65 16.506 4.07 23.259 4.566 9.981.735 20.261-7.426 28.487-12.115 1.404-.799 3.37-1.154 4.269-2.578 2.119-3.347.355-12.722.724-17.018.205-2.406 1.601-4.065 2.085-6.254 1.289-5.843 2.025-15.141-2.831-19.51-8.722-7.84-28.714-3.847-40.292-10.003-4.132-2.197-5.502-4.506-8.709-7.229-1.212-1.03-2.736-.872-2.933-2.95-.21-2.24.578-5.715 1.798-7.63 3.631-5.698 18.712-2.565 23.957-.346 2.766 1.17 5.091 3.3 7.72 4.69.651.341 1.88 1.106 2.552.995.72-.12 3.764-2.129 4.642-2.655 1.661-1 4.924-2.825 6.23-4.04 1.148-1.064.848-1.863.852-3.317 1.075-.269 2.651 1.616 3.554.877.732-.603.732-4.395-.128-4.844l-1.499.116c.167-1.885 0-2.83-1.178-4.275-3.309-4.082-9.317-5.138-14.374-5.741-3.408-.41-7.069.145-10.255-.235-.878-.107-1.143-.68-1.751-.817-.608-.136-3.246-.269-4.021-.273-.843-.009-4.517.7-4.796-.124l.163-1.45-.33-.303c-1.057-.286-5.412.29-6.024-.077l.004.013ZM301.461 114.433c-2.586.466-8.611 2.201-8.08-2.189.677-5.604 3.121-6.369 1.023-13.098-.646-2.078-3.16-8.665-4.222-10.298-.483-.74-1.764-.718-1.948-1.706.009-4.963-2.432-12.799.334-17.103 2.33-3.621 3.948-3.86 5.083-8.82 2.757-12.063-7.695-17.099-7.601-26.61.018-1.975 1.546-8.849 2.475-10.567 1.546-2.865 3.195-3.305 4.222-7.114 2.205-8.165-.762-14.051 10.35-15.53 8.777-1.167 13.141 1.727 21.058 3.287 1.366.27 3.472.27 4.56.577.51.146 1.242 1.082 2.239 1.201 1.568.184 1.619-1.034 2.12-1.21 1.49-.512 4.534.45 5.541 1.668 1.216 1.475.937 4.655 1.19 6.506.313 2.262 1.379 6.712 1.255 8.772-.069 1.159-2.236 3.604-1.944 5.22-3.657.047-3.563 5.177-3.126 7.767.325 1.94.711 3.779 3.134 3.394.193.992.261 2.369 1.362 2.809 1.391.56 6.941-.834 8.598-1.351.599-.188 1.618-.312 1.897-.885.659-1.38-.184-6.865-.069-8.832.351-6.002 4.783-10.96 5.151-16.984 3.332 1.232 3.344-7.147 0-5.984-.445-.586.613-3.873 1.212-4.292.086-.06 1.794-.812 1.897-.83.933-.175 3.858-.09 4.89.018 3.511.367 6.221 2.902 10.079 3.189 7.181.525 14.627-1.698 21.624-2.155 1.4-.09 4.967.086 5.994 1.082.459.44 1.914 5.18 2.193 6.147.856 2.94 2.453 8.31 1.674 11.17-.6 2.214-2.749 3.873-3.486 5.925-1.284 3.573-.749 8.566.364 12.136.853 2.723 2.45 5.284 3.122 8.002-1.238.821-.719 2.052-.197 3.185.27.59 1.242 1.616 1.323 1.885.398 1.33-.899 7.815-1.349 9.47-1.837 6.783-9.912 17.145-4.992 24.01 1.014 1.42 1.802.433 2.487.83.232.133 2.09 3.792 2.368 4.369 1.43 2.963 3.995 8.695 3.614 11.884-.544 4.574-3.151 9.465-4.033 14.034-.96-.034-2.12.218-2.732 1.013-.201.261-.407 1.056-.493 1.112-.415.261-1.631-.145-2.132-.06-.557.094-1.302.825-2.021.94-.856.133-1.85-.072-2.745.039-2.59.329-6.898 1.081-9.381 1.748-1.122.304-2.728 1.338-3.477 1.445-5.665.778-12.263-2.141-17.886-2.898-1.52-.552-.638-2.766-.852-4.057l1.923-2.351c-1.31-1.009-2.869-1.612-4.487-1.937-.459-.089-.99.206-1.555-.102-.248-.137-.95-1.436-1.07-1.766-1.388-3.937 1.301-8.635.201-12.384-.428-1.466-1.79-.35-2.055-1.154-.266-.804.214-1.894.188-2.736-.09-3.12-2.488-2.372-3.648-4.71-1.208-2.442-1.096-4.925-1.52-7.46-.313-1.873-.886-2.856-2.89-3.1-1.692-.205-8.209.62-9.656 1.428-3.066 1.719-.325 8.447 1.178 10.666 1.006 1.488 2.701 2.338 4.123 3.364l.197 17.112c-.775 1.385-2.377 1.27-3.182 2.809-1.233 2.364-1.271 5.608-1.999 8.156-1.747.368-3.357 1.488-5.083 1.873-9.313 2.086-18.874-7.866-29.883-3.972-.852.304-1.576.872-2.458 1.073v-7.053l.009-.017Zm54.542-47.613c.621.62.047 2.09.043 2.825-.008 1.411.411 3.399-.12 4.583-1.156 2.595-2.526 4.065-1.781 7.378.355 1.586 1.931 2.146 2.09 2.617.235.688-.03 1.718.359 2.847 1.85 5.369 6.021 8.69 6.106 15.299.013.919-.719 4.001-.227 4.484.647.637 8.388 2.322 9.814 2.6 1.516.299 3.362.799 4.86.919 5.211.41 10.114-1.928 15.227-2.322 2.534-.196 4.573.8 6.251-1.453 1.516-2.031 1.293-3.796.617-6.1-1.777-6.083-5.37-13.055-6.479-19.181-1.194-6.584 3.824-12.444 5.845-18.34 4.787-13.974-5.909-20.612-6.17-33.287-.035-1.573 3.074-5.891 3.982-7.584 1.272-2.377 3.109-5.77 3.323-8.438.171-2.176.218-8.165-3.28-7.55-1.306.231-.437 2.146-1.105 2.253-.274-.085-.557-.197-.852-.17-2.501.217-5.04.273-7.395 1.187-.702.274-1.297.945-2.038.975-2.518.09-6.5-.671-9.206-.868-1.85-.136-4.702.09-6.41-.226-.617-.116-1.023-.74-1.931-.85-2.522-.304-3.083.43-4.976.811-1.515.304-2.68-.573-2.419 1.868.111 1.04.933 1.544 1.066 2.36.882 5.493-3.374 9.088-5.523 13.7-1.422 3.049-2.33 6.806-1.431 10.132.566 2.086 3.071 3.997 1.58 6.259-.633.961-1.811 1.085-2.881 1.184-2.856.269-5.871-.338-8.688.303-3.293.753-7.202 4.027-10.418 1.514-2.492-6.02-6.089-11.205-4.907-18.096 1.726-4.852 5.25-9.849 6.688-14.697.591-1.992.36-2.526-1.601-3.3-4.085-1.603-8.337-.496-12.084-1.188-.526-.099-.971-.676-1.558-.795-2.407-.5-6.586-.24-9.168-.253-2.971-.017-6.234-.316-9.137.693-4.436 1.543-3.216 5.938-4.338 9.563-.976 3.159-2.907 6.42-4.127 9.558-.501 1.287-2.368 6.177-2.42 7.22-.017.338.065.992.369 1.185l1.999.196c-.124 5.647 4.518 9.952 4.92 15.5.167 2.313-.865 1.809-1.066 3.63-.338 3.01.869 6.023.287 8.622-1.704 7.648-9.305 14.244-5.151 22.952 1.186 2.484 5.219 5.818 5.669 8.447.45 2.629-2.188 9.422-.48 11.38.741.85 4.77.683 5.999.654 5.922-.141 9.493-.975 15.518.521 8.071 2.009 19.195 6.754 17.74-7.237-.347-3.339-1.747-2.685-2.916-4.57-1.585-2.556-2.458-7.494-3.743-10.37l-1.464-1.142c.261-3.369-.304-7.139 0-10.456.21-2.283 3.211-3.501 5.147-4.053 3.438-.983 6.011-1.29 9.505-1.624 2.484-.24 5.323-1.338 7.832-1.8.908-.167 4.085-.842 4.667-.26l-.013-.01ZM358.692 142.36c1.52 1.125 3.503 1.419 5.353 1.347.209.047.269.419.299.59.429 2.518.775 6.356.912 8.934.232 4.356-.423 9.148-1.083 13.453-.145.958-1.447 1.872-.407 2.783.236.205 1.092.521 1.405.534 1.259.052 1.443-1.415 2.119-2.129.81-.855 2.788-1.94 3.845-2.787 4.424-3.552 8.74-7.421 12.431-11.743 3.074-3.599 5.121-7.84 9.086-10.593 3.657-.034 7.39-.278 11.047-.102 3.413.162 6.855.893 10.268 1.077 1.952.103 3.935-.068 5.888 0l.025 1.577c.257.744 2.582.334 3.297.342.801.009 1.563.005 2.347.009 1.07.004 2.145.004 3.215-.017l.334.154c1.259 2.086 2.021 4.501 1.91 6.976l-5.999 4.638 4.929 1.39c1.43 2.877-1.139 4.681-1.953 7.139-2.496-.325-5.245-.253-5.117 3.013-2.697-.008-4.89 2.702-6.213 4.805-3.862 6.147-4.384 13.949-7.236 20.562-.355.829-2.145 4.506-2.762 4.724-1.229.44-2.107-.316-2.179 1.885-.052 1.522.895 2.202 1.211 3.24.784 2.599.758 5.964 1.709 8.982 2.719 8.614 9.707 13.555 14.704 20.587 2.192 3.082 3.729 7.939 7.806 8.772.428.958.013 1.796.017 2.634.034 4.035.381 9.028.098 12.969-.132 1.873-1.152 2.766-2.98 2.963-8.555.919-18.301-3.847-26.736-2.967-1.7.175-3.284 1.18-4.787 1.419-2.856.449-10.76-1.722-11.779-4.809-.758-2.295-.437-5.134-1.229-7.75-2.06-6.818-7.053-9.952-11.026-15.069-1.439-1.855-2.27-5.745-5.151-5.356l-.167.261c-.236 1.376.098 2.312.736 3.479.484.881 2.428 2.903 2.569 3.429.099.363-.167 1.222-.124 1.821.082 1.15.664 2.612.831 3.877.642 4.869-.741 12.218-3.477 16.351-1.13 1.71-1.974 2.176-4.089 2.33-2.839.214-5.973-.483-8.975-.197-4.397.419-9.433 2.775-14.006 3.544-2.381.402-7.699.979-9.831.107-2.946-1.205-.612-4.095-1.871-5.399-.827-.859-2.133-.197-3.01-.201-1.893-.008-3.096-1.594-3.597-3.249-.964-3.185 1.075-5.01 1.344-7.977.351-3.834-.222-8.096-1.55-11.7-1.408-3.822-4.44-7.566-5.365-11.529-.197-.834-.334-5.267-.15-6.01.052-.214.484-.261.651-.458.732-.859.295-2.218.518-3.338.287-1.437 2.771-7.52 3.768-8.418.36-.32.895-.483 1.276-.867 1.306-1.338.698-2.638.882-4.25.428-3.808 2.047-5.497.231-9.678-.894-2.06-2.44-3.12-3.553-4.788-1.045-1.556-.176-3.783-.647-4.48-.471-.696-1.833.06-2.158-.414-.929-4.083-1.666-7.789-.582-11.927 1.318-5.049 5.305-9.345 4.581-14.876l.321-.321c1.97.256 2.09-1.09 2.013-2.71-.064-1.36-1.135-2.792.621-3.211 1.961-.466 6.529-.149 8.897-.307 4.954-.33 11.142-.817 15.963-1.804 2.634-.539 7.168-2.779 9.69-2.005.424.132.437.59.647.744l-.005-.005Zm5.498 40.363c-.192 1.702.142 3.711 0 5.451-2.102.423-3.913 1.171-5.952-.043-.445-2.8-1.451-5.519-2.389-8.195-.484-1.385-1.259-2.659-1.73-4.044-1.019-3.027-1.25-4.202-.158-7.224 1.413-3.903 4.427-7.618 4.23-11.914 3.824.709 3.953-6.977 2.253-8.554-.574-.535-1.996-.885-2.775-.855-2.916.102-7.254 2.03-10.529 2.329-1.679.154-3.738-.205-5.314.039-.754.115-1.696 1.013-2.141 1.034-3.425.163-5.631-.872-9.189.693-1.045.462-3.083 2.107-3.721 2.27-1.31.333-1.588-.261-2.59 1.261-1.109 1.68-1.011 4.082-1.465 6.019-1.049 4.493-2.235 9.212-4.14 13.406l.355.491 1.764.056c.981 6.1 4.462 11.213 5.156 17.398.402 3.591.295 7.328-.745 10.794-.994 3.301-3.165 6.524-3.327 10.038-3.452-.278-3.482 5.305-2.604 7.425.339.825 1.114 1.15 1.589 1.834.878 1.27.788 2.236 1.19 3.514.583 1.847 2.95 4.711 3.871 6.823.814 1.863 1.781 5.223 1.76 7.237-.03 3.488-2.865 10.695 2.124 12.397 3.986 1.359 10.97-2.274 15.333-2.86 3.575-.479 12.931-.291 15.573-1.979 1.058-.676 1.94-4.767 2.06-6.066.402-4.467-1.049-7.84-3.096-11.649-1.126-2.099-5.241-7.857-5.468-9.717-.257-2.099.21-4.668-.009-6.823.994-.324 1.225-.436 1.615-1.419.573-1.457 1.378-3.744 1.811-5.245.411-1.419.779-2.877.655-4.369 1.439.116 3.986-.521 4.727 1.159.544 1.231.069 4.8.202 6.425.573 6.976 6.093 14.461 10.696 19.459 1.562 1.697 5.502 5.993 7.176 7.156.989.688 2.449.585 3.199 1.295.471.445 1.014 1.89 1.297 2.552.527 1.24 2.428 7.699 3.104 8.015 4.569.684 9.236-.265 13.814-.534 3.211-.188 5.48-.303 8.67.316 3.867.753 7.875 2.604 11.887 2.253 1.884-.162 3.057-.41 3.113-2.462.107-4.112-6.376-11.341-9.112-14.432-4.941-5.583-13.415-12.346-14.824-19.827-.539-2.872-.098-5.805-.274-8.703-.043-.744-.265-3.574-.852-3.864l-1.152.106c-.544-.145-.043-1.278-.18-1.966-.278-1.377-2.213-4.031-2.839-5.502-1.832-4.317-1.644-9.96-.312-14.414.278-.928.865-1.715 1.169-2.681.458-1.453.561-3.009.843-4.501.343-.5 1.495.265 1.991-.791.463-.987-.235-2.206.15-3.27 1.623-.539 3.537.521 3.118-2.125l2.967-.243.24-2.005c4.38-2.283 8.64-4.963 12.52-8.02.933-.735 4.342-3.347 4.402-4.39.06-1.043-1.872-1.407-2.707-1.561-5.39-.987-12.126-.782-17.273-1.992-.62-.145-1.203-.902-2.021-.974-1.678-.15-2.779 1.158-4.055 1.838-7.741 4.117-9.454 8.374-15.483 13.825-6.268 5.672-17.144 10.913-18.202 20.301l.004.004ZM37.484 111.227l-7.258-.022c-1.319-4.715-.313-10.003-1.186-14.735-.086-.466-.42-.89-.535-1.39-.099-.435.077-.974-.056-1.44-.287-1.013-2.017-.363-2.29-.603-.155-.137-1.174-3.424-1.311-3.924-.946-3.433-1.336-7.336-1.503-10.897-.021-.495-.09-1.718.004-2.103.052-.213.484-.26.651-.457.655-.774.381-1.744.424-2.685h1.927c-.219-1.098-1.01-2.466-.484-3.582.295-.624 1.216-.641 1.447-1.116.304-.632-.017-1.727.116-2.45.021-.106.818-1.914.895-1.991.128-.124.796-.167 1.246-.573 1.361-1.236.788-6.015.835-7.926.021-.867.556-3.774.128-4.386l-2.286-.329c-.386-1.953-1.22-3.753-1.794-5.643-.604-1.983-.81-4.467-1.94-6.185-.291-.44-.955-.778-1.113-1.24-.352-1.026-.262-5.66-.047-6.784.077-.415 1.139-1.526 1.434-2.415.715-2.133.89-5.032 1.447-7.319.116-.479.848-3.488.994-3.604.102-.085.732-.012 1.053-.12 1.644-.56 2.44-5.082 2.556-6.642.24-3.224-1.177-7.866 3.344-8.417 10.35-1.257 19.62 5.09 29.314 4.257 1.606-.136 2.8-.444 2.453-2.36l5.794.12.201-2.043h21.2c-.501 4.296 5.75 2.44 7.985 2.988.236.056.3.932 1.538 1.077 3.288.385 7.304-.286 10.674-.013.553.133 1.255 7.186 1.525 8.354.847 3.654 2.689 5.223 1.55 9.443-.137.512-1.388 3.159-1.692 3.33-.569.32-1.545-.355-2.41.906-2.471 3.604.154 10.503 1.169 14.312l-9.091 1.077-8.251-.863c-.09-.073.66-1.278-.317-2.142-.685-.607-5.498-1.445-6.705-1.642-3.25-.525-9.665-1.431-12.675-.38-2.449.855-1.944 2.783-.608 4.45 1.22 1.522 2.728 1.637 4.57 1.851 4.568.539 10.584 0 14.866 1.402 1.554.509 2.68 1.668 4.282 1.924 1.734.278 6.033-.427 6.958.962.137.205.869 2.257.877 2.445.048.915-.757 3.078-.766 4.288-.017 1.675.946 3.18 2.792 2.877.064 1.09-.42 2.718 1.07 2.782-.415 1.993-.235 4.267-.098 6.315-1.58 3.013-3.811 5.386-3.982 8.955-.103 2.189.736 6.857-.844 8.563-1.336 1.44-4.556.449-6.26.042-6.568-1.564-13.646-5.147-20.553-4.368-8.029.906-3.588 4.898-1.777 9.135 1.786 4.172 3.653 12.324 3.113 16.779-2.132 4.082-3.258 8.78-6.222 12.384-.278.337-1.627 1.928-1.858 1.992-.93.269-1.965-.06-3.211.427-.968.381-1.914 1.693-2.325 1.757-.583.094-1.26-.252-1.914-.239-2.843.064-5.717.137-8.556.243-1.057.039-2.128-.051-3.185 0-.797-1.923-3.477-2.975-5.413-3.193-.959-.107-1.995.103-2.924-.072-.702-.133-3.99-1.262-4.59-1.616-.805-.475-2.42-2.488-2.42-3.356v-4.168l.018-.004Zm73.755-100.886h-8.992c-.051 0-.441-.509-.672-.611-3.028-1.364-13.368-1.736-16.892-1.535-6.08.346-12.47 2.364-18.644 2.975-5.9.582-13.697.282-19.44-1.27-3.763-1.017-7.248-4.462-11.312-2.928-2.933 1.107-3.511 4.245-2.843 7.015.227.936 1.845 3.946.758 4.583-.386.226-1.006.043-1.439.385-.154.124-1.1 1.872-1.177 2.137-.287.988-.03 1.804-.266 2.727-.287 1.116-1.636 3.39-2.14 4.703-.33.85-.395 1.945-.686 2.736-.407 1.094-1.567 1.85-.976 3.189.18.41.66.628.852 1.072 1.032 2.347.244 7.918 4.025 8.153.338 2.154-.523 5.185 2.038 6.147-.124 2.727.698 5.6.63 8.297-.095 3.835-2.201 10.841-3.747 14.428-.248.577-1.362 2.924-1.713 3.206-.5.406-1.079.077-1.606.32-1.087.5-.796 4.198-.543 5.25.274 1.137 3.365 8.062 4.063 8.558.334.24.775.094 1.002.33.445.474 2.933 9.827 2.98 10.879.06 1.385-.63 2.8-.856 4.159h1.927c-.553 3.215 2.312 1.932 4.175 1.924 2.436-.009 2.659.393 4.701 1.077 6.598 2.21 15.753 4.514 22.604 2.886 5.656-1.347 4.65-7.101 3.473-11.393-1.285-4.69-4.715-10.409-5.481-14.833-.223-1.274.098-3.792-.283-4.626-.261-.573-1.481-.256-1.995-.256l.235-2.971c2.775.611 1.931-2.56 2.873-3.651.656-.76 2.968-.795 3.897-1.24.557-.269 1.122-1.205 1.494-1.295.334-.081.801.218 1.233.192 4.257-.286 8.821-2.509 12.829-2.12 2.192.214 5.76 1.218 7.836 2.01 1.554.59 3.091 2.184 4.873 1.889.719-.304 2.838-7.04 3.374-8.2.428-.931 1.134-1.662 1.554-2.722.514-1.296 1.327-4.613 1.297-5.938-.034-1.565-1.691-1.783-1.858-2.056-.278-.458.39-1.497-.732-2.155-.865-.509-3.473-1.069-4.603-1.39-5.978-1.675-10.803-2.15-17.063-1.769-2.938.18-7.151 1.864-9.733.522-2.586-1.347-6.607-9.94-6.431-12.812.11-1.821.817-3.83 1.087-5.647 5.558.218 10.73-2.881 16.134-3.236 6.179-.406 12.118 2.74 18.1 3.967 1.276.26 4.624 1.184 5.249-.32 1.118-2.685 1.032-6.516 2.424-9.337 1.117-2.266 4.384-4.488 4.855-6.694.159-.744.236-4.489-.432-4.707l-.017-.004ZM293.432 149.7c-.651.137-.839 1.035-1.276 1.086-6.697.043-13.321-1.321-20.026-1.086.402 1.334.167 2.766-.06 4.108-.891 5.245-3.64 10.585-3.794 15.984-2.899-.757-3.194 4.399-1.28 5.241.569.252 1.011-.329 1.246.235.313 2.971.775 6.51 1.803 9.315.813 2.223 4.003 7.066 3.01 9.31-1.054 1.048-2.458-.068-3.383-.816-3.348-2.702-4.915-5.754-9.202-7.699-1.391-.633-2.757-1.398-4.196-2.009-1.439-.612-2.993-.941-4.487-1.403l.188-1.252c-.899-.684-5.087-1.129-5.297-2.099-.064-.291.262-.71.099-.928-2.218-.803-4.034-1.56-5.699-3.3-2.424-2.526-5.841-9.434-6.157-12.888-.082-.872.321-1.099.325-1.608.008-1.487-1.584-2.748-2.304-3.886-1.588-2.513-2.796-5.929-5.87-6.963-.874-.295-1.927-.257-2.693-.518-1.837-.628-2.488-1.615-5.027-1.821-3.905-.316-6.385 1.578-9.643 1.715-2.329.098-2.441-1.864-1.148-3.301 2.938-3.261 13.48-2.004 17.415-.966 1.965.522 3.284 1.086 4.731 2.544 1.113 1.12 2.475 3.706 3.417 4.497.668.56 1.657.308 2.051.787.856 1.043 1.897 6.925 2.402 8.66.672 2.296 2.317 7.392 4.449 8.597.647.363 1.323.261 2.021.761 1.512 1.09 2.308 4.001 4.5 4.074l2.454-.227c-.394 2.711 1.105 2.227 2.719 2.95.689.308 3.618 1.676 3.999 1.992.835.684.296 2.257 2.18 2.526.659.094 3.245.124 3.318-.735.086-1.034-1.036-1.329-1.088-1.539-.222-.893.09-2.902 0-4.014-.149-1.894-1.365-5.361-1.057-7.045.09-.5.728-1.188.916-1.868.176-.624.111-1.188.313-1.825.321-1.022 1.43-1.74 1.661-2.616.231-.877.039-1.869.099-2.788 2.749.257 1.794-.577 2.192-2.193.724-2.962 2.321-5.459 3.057-8.276.415-1.59.45-3.257.946-4.826l6.008-.09c.201.21-.814 1.856.843 2.257 5.152.552 10.414 1.881 15.488.047 2.531-.914 3.854-3.009 6.847-2.252.179.047 2.115 1.051 2.41 1.226 1.302.766 1.61 1.014 1.97 2.523 1.524 6.412-.261 13.794-1.04 20.215l-.317.325-1.653.06c-.801.256-.116 2.219-.129 2.847-.008.402-.227.821-.231 1.282-.013 1.586.197 3.091 0 4.677l2.27.556c.218 2.022.432 4.211 1.503 5.98.231.385 1.374 1.518 1.374 1.62v3.1c.732.209 1.422.393 2.141 0 .223.308-.171 3.518-.111 4.176.06.659 1.027 1.697 1.083 2.125.047.372-.124 1.389-.129 1.945 0 .329.232.885.206.923-.039.052-.599.188-.848.547-.925 1.347.137 3.856-.227 5.442-4.354.415-6.071 6.849-6.765 10.452-.497 2.569-.124 4.249-.283 6.536-.06.843-.719 1.74-.651 2.8.142 2.108 2.565 1.364 2.822 1.732 1.692 5.087 5.404 10.123 6.671 15.312.634 2.591-.098 3.625-.972 5.993-1.22 3.318-3.819 10.17-5.682 12.923-.659.975-1.982 1.304-3.087 1.62-4.179 1.197-14.515 2.099-18.635 1.172-5.493-1.236-8.709-13.697-11.466-18.262-5.323-8.802-19.188-11.222-26.698-17.591-1.687-1.432-7.091-8.37-8.778-8.336-1.057.021-.779 2.3-.719 3.069.616 7.939 7.682 12.081 7.476 20.344-.073 2.997-1.297 5.852-1.083 8.858a.92.92 0 0 0-.647-.124c-2.672.594-4.059 7.874-5.185 10.118-4.205.962-8.491-1.453-12.533-2.454-2.693-.667-3.738-.791-6.47-.166-.809.183-5.301 1.816-5.558 1.598-.394-5.407-7.386-2.282-5.905-8.763.077-.346.728-2.313.9-2.355 2.851-.355 5.553.863 8.319 1.073 1.542.119 4.5-.304 5.734 0 .205.051.265.53.582.743 1.148.77 7.951.287 9.741.547 2.873-.341 2.308-4.766 2.989-6.848.334-1.026.916-.957.736-2.436-.167-1.368-1.408-3.16-1.845-4.356-.694-1.894.283-6.438-3.057-5.814-.792-2.522-.981-5.891-2.175-8.195-.215-.415-.716-.56-.818-1.107-.15-.778-.099-3.617-.017-4.497.137-1.42 3.699-10.529 4.534-12.145 1.113-2.163 2.475-1.629 4.368-.564.158 1.359.154 4.326 1.614 5.014.419.197.968.124 1.404.308.964.406 3.002 5.459 3.764 6.716 4.911 8.062 20.917 12.341 28.222 19.916 1.841 1.911 2.393 5.489 5.061 7.13.527.325 1.392.411 1.678.676.793.731 2.094 4.659 3.323 6.087 2.959 3.424 12.054 2.535 15.894.915 4.818-2.031 5.785-6.233 5.271-11.145-.389-3.714-3.228-6.826-4.358-10.182-.754-2.244-.471-4.266-2.039-6.301-.239-.308-.817-.513-.86-.684-.193-.795-.129-7.045 0-8.084.201-1.654 3.451-6.566 4.397-8.434 2.364-4.66 5.609-11.367 2.124-16.236-.347-.487-1.422-1.231-1.55-1.659-.197-.666.038-1.675-.094-2.47-.458-2.719-3.494-6.015-4.822-8.439l.065-10.52c2.582-3.741 5.54-8.08 4.808-12.833.458.072 2.141.047 2.141-.535v-3.526c-2.047.299-5.284-.402-7.172 0l.004-.009ZM30.419 243.533l2.132-.009c.188-1.308-.9-2.33-1.379-3.416-1.897-4.266-4.303-9.845-5.318-14.354-.903-4.019-.766-12.252.385-16.206.18-.62.703-2.326 1.362-2.446.214-.038.514.12.732.056.844-.252 1.126-2.176 1.01-2.95 4.407.171 1.435-.987 1.114-2.073-.094-.316-.124-1.53-.047-1.838.056-.231.75-.398 1.002-.65 1.554-1.556 2.492-7.164-1.002-6.553-.137-2.142.407-4.621-.561-6.609-.65-1.334-1.811-.821-2.385-1.351-.574-.53-.856-2.984-2.004-2.838-.706.089-.972 2.218-1.053 2.881-1.25.218-2.56-.18-3.73-.214-1.691-.051-5.416.355-6.752-.098-2.261-.77-3.023-4.767-4.603-6.092-1.366-1.15-4.595-1.286-6.32-1.71.693-2.364-.604-1.556-1.782-1.958-1.117-.38-1.263-4.578-1.224-5.638.188-5.279 2.158-10.264 4.192-15.052.663-1.569 2.59-6.527 3.896-7.224 1.957-1.043 6.415-.723 8.735-.701 1.859.017 3.944.504 5.88.115 2.316-.466 5.566-3.039 7.595-3.112 3.965-.141 8.149-.004 12.17.15 2.62.098 2.697.44 4.983.91 9.172 1.89 16.593 1.89 25.606-.675 1.974-.56 3.443-1.684 4.886-2.176.578-.197 9.505-.257 10.118-.073.325.099.65.633 1.07.855 2.06 1.09 3.854 1.206 6.145 1.03-.912 3.198 3.164 2.753 5.159 3.335.784 2.065 1.084 4.394 1.058 6.613-.009.714-.12 2.556-.231 3.185-.112.628-.917 1.073-.852 1.71l.835.363c-.065 5.198-1.735 10.251-2.099 15.449 1.071 3.296 2.869 6.417 3.173 9.931-1.584.885-3.348.936-5.112 1.094.63-2.8-1.084-2.052-2.878-2.578-4.119-1.201-7.865-2.975-12.25-3.586-1.546-.214-5.125-.898-5.596 1.188-.656 2.911 1.794 8.746 4.675 10.037-.03 2.352-.282 4.669-.235 7.028.021 1.107.394 2.249.235 3.42-.077.581-2.706 3.646-3.31 4.604-6.534 10.349-3.832 22.148 3.255 31.339-.077 2.86.53 5.886.27 8.729-.168 1.847-1.606 1.757-2.407 3.155-.634 1.107-1.755 4.044-2.158 5.326-.535 1.693-.544 3.878-1.76 5.083-.92.911-5.164 2.441-6.517 2.685-1.237.222-2.492 0-3.73.124-1.853.183-3.977 1.312-5.806 1.273-2.29-.047-5.386-1.179-7.489-1.945-1.806-.658-3.267-.585-5.082-.91-2.865-.517-5.507-1.808-7.879-3.463v-3.954h-7.065c-.043 0-.116-.462-.415-.765-.236-.244-.655-.265-.655-.304v-8.122l.013-.025Zm58.67-93.841c-.891-5.818-7.104-2.142-10.5-1.167-6.448 1.851-14.387 3.231-21.096 2.894-8.804-.441-16.682-3.531-25.692-3.224-2.23.077-6.65.244-8.674.744-1.717.423.222 1.573-1.478 2.159-.976.333-3.657.483-4.817.534-2.167.103-4.363-.102-6.53 0-.257 1.347-.175 2.711-.552 4.044-.672 2.381-2.445 4.745-3.503 6.977-1.134 2.402-3.588 6.775-.869 8.725 3.353 2.402 12.246 1.829 16.134.748 1.015-.282 2.497-1.137 3.242-1.253.42-.064 3.55-.081 3.703.017 1.722 5.78 5.087 11.431 6.607 17.237.763 2.906 1.16 9.729.651 12.709-.694 4.056-3.695 7.267-5.087 11.165-4.71 13.18 5.228 15.685 5.995 26.509.09 1.274-.411 8.784.03 9.054 6.611.384 12.777 3.146 19.2 4.45 7 1.423 14.216 2.065 16.58-6.182 1.768-6.164-.823-8.887-2.788-14.213-1.413-3.831-3.991-10.123-3.7-14.065.617-8.254 8.928-15.342 8.14-24.139-.535-5.951-8.431-14.022-7.232-19.408.188-.838 2.012-1.539 2.809-1.898 2.676-1.214 7.9-3.223 10.73-3.394 3.126-.189 6.736.637 9.87.235 1.43-.184.762-1.253 1.002-2.206.158-.611 2.072-3.454 2.556-4.502 1.837-3.967 2.6-6.331 2.338-10.746-.034-.59.51-1.048-.116-1.595-1.22-1.064-5.33.09-6.958-.209h.005Z"/><path d="M187.178 259.73c-.056-.034-.441-.744-.797-1.022-1.537-1.21-3.571-.684-5.326-.876-2.736-.304-4.017-1.355-7.241-.988-2.021.231-6.928 2.475-8.367 2.035-.856-.261-1.19-2.86-2.423-3.565-1.448-.825-3.443-.222-5.01-.556-.822-.538.18-4.206-2.479-5.433-2.043-.945-6.213-.312-8.701-.718-5.481-.898-13.586-7.477-18.356-1.971-1.563 1.804-1.645 2.719-1.953 4.89-.39 2.745-6.59 3.574-5.121 7.392-4.77.675-8.979 3.197-13.835 3.821-2.239.287-10.957-.359-12.905-1.171-.364-.15-.685-.586-1.037-.675-.47-.124-1.28.059-1.52-.086-.89-.539-1.074-6.395-2.17-7.772-1.225-1.538-4.098-1.008-5.811-1.509-1.422-7.079 4.684-12.226 3.82-19.373-.249-2.056-1.474-4.142-1.662-6.25-1.049-11.901 14.635-20.583 20.523-29.329 5.541-8.238.809-18.241 3.948-27.051 2.98-8.358 10.152-13.996 13.471-21.605.646-1.484 1.297-4.365 2.218-5.481.188-.226 2.547-1.65 2.903-1.804 4.736-2.077 13.826 4.613 19.131 5.01 3.571.27 7.532-.461 11.043.304 2.462.538 3.516 1.402 4.004 3.911.788 4.049-.296 8.464-.381 12.547-.185 8.691 1.965 10.961 7.292 17.104 3.01 3.466 11.317 10.986 11.972 15.192 1.254 8.067-.985 19.981 3.477 27.094 3.083 4.916 8.392 9.127 11.822 13.846 1.64 2.257 1.901 3.467 2.059 6.28.244 4.296.206 10.922-.501 15.12-1.074 6.408-4.474 3.215-8.846 2.762-.689-.073-2.929.111-3.25-.073h.009Zm-27.233-84.808c.206-2.745-1.096-5.284-1.293-8.007-.278-3.865 1.19-9.892-.034-13.218-1.546-4.185-9.078-3.411-12.666-3.813-4.398-.492-10.572-2.971-14.751-2.274-2.946.491-2.398 3.244-3.267 5.501-2.107 5.489-7.455 9.409-10.641 14.172-2.817 4.206-3.635 8.759-5.091 13.516-.18 2.104 1.131 2.595 1.229 3.446.206 1.808-.18 5.369-.167 7.468 0 .398.231 1.099.193 1.261-.052.235-.484.278-.617.492-.616 1.013-.282 1.684-.471 2.676-.282 1.466-1.481 3.48-2.342 4.715-.291.419-2.398 3.198-2.578 3.3-.895.522-3.001-.863-3.712 1.531-.518 1.739-.188 1.915-1.216 3.71-.124.218-.111.693-.193.761-.111.094-.745.013-1.053.12-1.315.457-1.225 1.188-2.017 2.047-2.458 2.659-4.877 5.032-6.209 8.55-2.56 6.771 1.388 14.466-1.567 21.092-.848 1.898-3.408 3.578-1.914 5.78 7.018 1.44 16.361 8.156 23.225 3.522 3.46-2.334 7.181-8.588 6.697-12.872.073-.081.557.206.766.206.818 0 1.491-3.322 2.236-3.942.745-.62 6.29-1.316 7.394-1.197 1.045.116 1.683.915 2.788 1.065 1.734.235 4.149-.282 5.759.021.497.094 1.319.988 2.154 1.27 1.293.44 2.847.406 4.209.714 4.68 1.051 9.42 2.718 14.28 2.094 1.233 2.749.946 6.143 1.94 8.853 1.481 4.04 3.592 1.535 5.908 1.18 1.054-.158 2.27.12 3.362-.064.925-.158 1.623-1.021 2.402-1.026.437 0 .938.223 1.494.231 1.537.021 4.612-.44 5.781-.214.509.099 1.644.842 2.355 1.065 2.826.885 9.882 2 12.469.675 2.479-1.269 1.032-5.724.227-7.793-2.004-5.142-6.256-7.925-9.245-12.145-1.045-1.474-1.717-3.83-2.912-5.001-1.28-1.257-2.406-.812-3.22-2.984-2.466-6.575 2.107-25.102-3.194-28.872-.488-.346-1.362-.479-1.46-.573-.355-.355-1.396-3.129-1.974-3.907-2.03-2.732-5.378-5.203-7.819-7.584-.775-.756-2.633-2.479-3.108-3.308-.685-1.185.681-2.809-2.128-2.257l-.009.017ZM153.908 5.472c.385.23.068 1.039 1.631.8.818-.125.921-.676 1.422-.937.411-.214 1.002-.23 1.481-.445 2.728-1.205 5.845-3.462 8.846-1.987 3.82 1.876 2.351 6.608 2.715 9.9.283 2.565 2.835 2.42 3.164 3.895.125.56.15 4.133.005 4.616-.66.804-1.841 1.133-2.407 2.086-2.064 3.497-3.065 10.636-2.702 14.637.137 1.492 1.02 1.48 1.084 1.745.154.624-.15 1.491-.073 2.163.381 3.45 4.423 8.006 5.155 10.883.21.83.193 6.656.039 7.63-.437 2.767-4.809 9.153-6.038 12.569-1.485 4.125-2.081 11.149.608 14.898 1.032 1.44 2.103 1.06 2.424 1.32.18.15 1.246 3.873 1.417 4.463 1.884 6.49 2.137 11.577.685 18.207-.145.663-.954 4.288-1.353 4.42l-1.914.227-.128 2.116c-4.064 2.338-8.577 4.339-13.201 5.309-6.282 1.317-10.585-.256-16.571-1.919-1.554-.432-10.319-2.843-10.777-3.792-.506-1.043 1.631-2.591 1.952-3.621 1.011-3.236-5.69-1.141-6.654-3.638-.351-.915-.462-3.291-.531-4.386-.201-3.197.21-9.097-.912-11.914-.497-1.248-2.333-3.214-2.629-4.215-.218-.735.043-1.445-.201-2.15-.613-.611-1.298-.423-2.034-.214-.077-1.594.094-3.223.008-4.817-.196-3.651-.834-7.092.086-10.799.604-2.436 2.338-4.993 3.28-7.412.655-1.689 1.285-3.612 1.554-5.395 4.501.958 1.418-3.198 1.122-5.074-.295-1.877.381-3.07-.582-4.972-.728-1.432-2.218-1.62-2.565-2.141-.518-.779-1.529-5.566-1.768-6.785-.69-3.462-1.76-8.464-.292-11.717.116-.252-.098-.385.446-.3.364 1.766 2.517 4.276 2.774 5.892.103.658.129 3.206.009 3.83-.146.756-1.34 1.017-1.049 1.902.197.603 1.434.227 1.978.385.788.23 2.064 4.027 2.347 4.924 2.338 7.503 1.567 14.586.775 22.26-.424 4.082-4.008 8.079-4.839 12.268-1.216 6.13 4.042 9.999 4.102 15.877l2.903.2c.159 1.83.06 3.865.214 5.665.069.786.309 3.552.655 4.048.275.393.81.381 1.229.483 2.754.65 5.854.59 8.65 1.197 8.91 1.945 17.311 8.054 25.652-.167 1.388-1.367 1.324-6.215.741-8.01-.693-2.138-2.809-3.775-3.913-5.712-2.403-4.215-3.764-13.991-3.019-18.745.158-1.009 1.434-4.984 1.948-5.75.39-.577 1.666-.91 2.308-1.543 1.841-1.817 3.644-7.476 3.854-10.046.561-6.856-4.346-13.106-7.014-19.065.308-4.989-.698-11.085.218-15.928.758-4.018 5.438-6.361 5.734-10.089.419-5.296-5.04-2.466-7.815-2.244-3.481.274-12.374.47-15.616-.03-3.421-.53-6.255-3.275-9.835-2.962l-.711-1.044h-2.077l-.321.317c-.115.526.077 1.133-.072 1.637-.15.505-.797.654-.972 1.808-.356 2.343.376 4.198-.21 6.63-.81 3.344-3.105 5.947-4.912 8.777-2.269.581-1.828-1.89-2.997-3.061l1.863-6.942c.556-.124 2.102.29 2.316-.36.184-.56-.103-4.488-.184-5.313-.124-1.231-.993-4.702-.861-5.549.116-.722 1.705-1.667 2.351-1.94 2.719-1.163 4.903-.663 7.613.11 4.509 1.287 7.155 3.113 12.191 3.22 1.331.03 7.639-.522 8.208-.18l-.008-.004ZM205.543 234.555c-4.192-3.518-5.721-8.93-6.205-14.218-.205-2.27-.432-5.698-.227-7.917.463-4.946 4.646-9.139 6.123-13.765.184-.573-.09-1.449.672-1.68 3.687-1.103 2.998 5.489 2.612 7.524-.616 3.257-3.305 6.134-4.359 9.328-1.288 3.903-.398 6.087.587 9.87a94.841 94.841 0 0 0 2.719 8.618l-1.927 2.24h.005ZM206.587 161.866c-.077.056-1.01-.235-1.794.441-2.744 2.351-3.716 13.093-1.485 15.812.616.748 1.417.765 2.265.988l2.924 7.724c.514 3.04-1.036 4.711-4.11 4.348-.891-4.228-3.041-8.11-4.291-12.205-.895-2.928-1.19-9.67-.766-12.717.265-1.92 4.067-8.392 5.039-10.786.51-1.257.78-2.586 1.285-3.839 2.454.992 2.218 4.468 2.008 6.699-.06.616-.676 3.24-1.075 3.54v-.005Z"/><path d="M143.644 205.243c-1.435.376-1.777.534-1.906 2.052-.227 2.736 1.354 7.143-2.881 7.169-.364 0-.72-.206-1.071-.21-4.016-.051-7.977-.611-11.989-.855-1.4-.248.218-2.967.664-3.616 2.445-3.595 7.275-6.793 9.381-10.512 1.186-2.09 1.392-4.604 2.441-6.754.865-1.779 1.807-2.339 2.997-.347 1.054 1.766 2.582 6.477 2.621 8.499.03 1.5-.381 3.039-.253 4.578l-.004-.004Z"/></g><defs><clipPath id="a"><path fill="#284380" d="M0 0h431v263H0z"/></clipPath></defs></svg>